# Blender v2.78 (sub 0) OBJ File: 'arcanoid.blend'
# www.blender.org
mtllib brick.mtl
o brick.003_Cube.044
v 1.200000 0.350000 -2.685000
v 1.150000 0.300000 -2.685000
v 1.150000 0.350000 -2.725000
v 1.192144 0.325922 -2.685000
v 1.192145 0.350000 -2.704262
v 1.184907 0.327304 -2.703156
v 1.150000 0.307856 -2.704263
v 1.174077 0.307855 -2.685000
v 1.172694 0.315093 -2.703157
v 1.174078 0.350000 -2.718716
v 1.150000 0.325923 -2.718717
v 1.172696 0.327306 -2.712926
v 1.200000 0.350000 -2.125000
v 1.150000 0.350000 -2.085000
v 1.150000 0.300000 -2.125000
v 1.192144 0.350000 -2.105737
v 1.192145 0.325923 -2.125000
v 1.184907 0.327306 -2.106843
v 1.150000 0.325922 -2.091285
v 1.174077 0.350000 -2.091284
v 1.172694 0.327304 -2.097074
v 1.174078 0.307856 -2.125000
v 1.150000 0.307855 -2.105739
v 1.172696 0.315093 -2.106845
v 0.850000 0.350000 -2.085000
v 0.800000 0.350000 -2.125000
v 0.850000 0.300000 -2.125000
v 0.825921 0.350000 -2.091285
v 0.850000 0.325923 -2.091284
v 0.827304 0.327306 -2.097074
v 0.807856 0.325922 -2.125000
v 0.807855 0.350000 -2.105739
v 0.815093 0.327304 -2.106845
v 0.850000 0.307856 -2.105737
v 0.825923 0.307855 -2.125000
v 0.827306 0.315093 -2.106843
v 0.850000 0.350000 -2.725000
v 0.850000 0.300000 -2.685000
v 0.800000 0.350000 -2.685000
v 0.850000 0.325922 -2.718716
v 0.825923 0.350000 -2.718717
v 0.827306 0.327304 -2.712926
v 0.825922 0.307856 -2.685000
v 0.850000 0.307855 -2.704262
v 0.827304 0.315093 -2.703156
v 0.807856 0.350000 -2.704263
v 0.807855 0.325923 -2.685000
v 0.815093 0.327306 -2.703157
v 1.150000 0.650000 -2.725000
v 1.150000 0.700000 -2.685000
v 1.200000 0.650000 -2.685000
v 1.150000 0.674078 -2.718716
v 1.174077 0.650000 -2.718716
v 1.172694 0.672696 -2.712926
v 1.174078 0.692144 -2.685000
v 1.150000 0.692145 -2.704262
v 1.172696 0.684907 -2.703155
v 1.192144 0.650000 -2.704263
v 1.192145 0.674077 -2.685000
v 1.184908 0.672694 -2.703157
v 1.150000 0.650000 -2.085000
v 1.200000 0.650000 -2.125000
v 1.150000 0.700000 -2.125000
v 1.174078 0.650000 -2.091285
v 1.150000 0.674077 -2.091284
v 1.172696 0.672694 -2.097074
v 1.192144 0.674078 -2.125000
v 1.192145 0.650000 -2.105739
v 1.184907 0.672696 -2.106845
v 1.150000 0.692144 -2.105737
v 1.174077 0.692145 -2.125000
v 1.172694 0.684907 -2.106843
v 0.800000 0.650000 -2.125000
v 0.850000 0.650000 -2.085000
v 0.850000 0.700000 -2.125000
v 0.807856 0.650000 -2.105737
v 0.807854 0.674077 -2.125000
v 0.815092 0.672694 -2.106843
v 0.850000 0.674078 -2.091285
v 0.825923 0.650000 -2.091284
v 0.827306 0.672696 -2.097074
v 0.825921 0.692144 -2.125000
v 0.850000 0.692145 -2.105739
v 0.827304 0.684907 -2.106845
v 0.800000 0.650000 -2.685000
v 0.850000 0.700000 -2.685000
v 0.850000 0.650000 -2.725000
v 0.807856 0.674078 -2.685000
v 0.807855 0.650000 -2.704262
v 0.815093 0.672696 -2.703156
v 0.850000 0.692144 -2.704263
v 0.825923 0.692145 -2.685000
v 0.827306 0.684907 -2.703157
v 0.825922 0.650000 -2.718716
v 0.850000 0.674077 -2.718717
v 0.827304 0.672694 -2.712926
vn 0.1251 -0.1251 -0.9842
vn -0.1251 0.1251 -0.9842
vn 0.1251 0.1251 -0.9842
vn 0.1251 0.1251 0.9842
vn -0.1251 -0.1251 0.9842
vn 0.1251 -0.1251 0.9842
vn -0.9706 0.1516 0.1870
vn -0.9706 -0.1516 -0.1870
vn -0.9706 -0.1517 0.1869
vn -0.1517 0.9706 -0.1870
vn 0.1516 0.9706 0.1870
vn 0.1517 0.9706 -0.1869
vn 0.9706 0.1516 -0.1870
vn 0.9706 -0.1517 0.1870
vn 0.9706 -0.1517 -0.1869
vn 0.8428 -0.5089 -0.1752
vn 0.7991 -0.1349 -0.5858
vn 0.5089 -0.8428 -0.1752
vn 0.7147 -0.4442 -0.5402
vn 0.1349 -0.7991 -0.5858
vn 0.1516 -0.9706 -0.1870
vn 0.1216 -0.4429 -0.8882
vn 0.4442 -0.7147 -0.5402
vn 0.4430 -0.1216 -0.8882
vn 0.4104 -0.4103 -0.8144
vn 0.7991 -0.1349 0.5858
vn 0.8428 -0.5089 0.1752
vn 0.4429 -0.1216 0.8882
vn 0.7147 -0.4442 0.5402
vn 0.1216 -0.4430 0.8882
vn 0.4442 -0.7147 0.5402
vn 0.4103 -0.4104 0.8144
vn 0.5089 -0.8428 0.1752
vn 0.1349 -0.7991 0.5858
vn 0.1517 -0.9706 0.1869
vn -0.4430 -0.1216 0.8882
vn -0.1216 -0.4429 0.8882
vn -0.7147 -0.4442 0.5402
vn -0.4104 -0.4103 0.8144
vn -0.8428 -0.5089 0.1752
vn -0.7991 -0.1349 0.5858
vn -0.5089 -0.8428 0.1752
vn -0.1349 -0.7991 0.5858
vn -0.1516 -0.9706 0.1870
vn -0.4442 -0.7147 0.5402
vn -0.1216 -0.4430 -0.8882
vn -0.4429 -0.1216 -0.8882
vn -0.1251 -0.1251 -0.9842
vn -0.4442 -0.7147 -0.5402
vn -0.4103 -0.4104 -0.8144
vn -0.5089 -0.8428 -0.1752
vn -0.1349 -0.7991 -0.5858
vn -0.1517 -0.9706 -0.1869
vn -0.8428 -0.5089 -0.1752
vn -0.7991 -0.1349 -0.5858
vn -0.7147 -0.4442 -0.5402
vn 0.1216 0.4430 -0.8882
vn 0.4429 0.1216 -0.8882
vn 0.4442 0.7147 -0.5402
vn 0.4103 0.4104 -0.8144
vn 0.5089 0.8428 -0.1752
vn 0.1349 0.7991 -0.5858
vn 0.8428 0.5089 -0.1752
vn 0.7991 0.1349 -0.5858
vn 0.7147 0.4442 -0.5402
vn 0.4430 0.1216 0.8882
vn 0.1216 0.4429 0.8882
vn 0.7147 0.4442 0.5402
vn 0.4104 0.4103 0.8144
vn 0.8428 0.5089 0.1752
vn 0.7991 0.1349 0.5858
vn 0.9706 0.1517 0.1869
vn 0.5089 0.8428 0.1752
vn 0.1349 0.7991 0.5858
vn 0.4442 0.7147 0.5402
vn -0.7991 0.1349 0.5858
vn -0.8428 0.5089 0.1752
vn -0.4429 0.1216 0.8882
vn -0.7147 0.4442 0.5402
vn -0.1216 0.4430 0.8882
vn -0.1251 0.1251 0.9842
vn -0.4442 0.7147 0.5402
vn -0.4103 0.4104 0.8144
vn -0.5089 0.8428 0.1752
vn -0.1349 0.7991 0.5858
vn -0.1517 0.9706 0.1869
vn -0.8428 0.5089 -0.1752
vn -0.7991 0.1349 -0.5858
vn -0.9706 0.1517 -0.1869
vn -0.5089 0.8428 -0.1752
vn -0.7147 0.4442 -0.5402
vn -0.1349 0.7991 -0.5858
vn -0.1216 0.4429 -0.8882
vn -0.4442 0.7147 -0.5402
vn -0.4430 0.1216 -0.8882
vn -0.4104 0.4103 -0.8144
usemtl green
s 1
f 3//1 87//2 49//3
f 61//4 25//5 14//6
f 73//7 39//8 26//9
f 86//10 63//11 50//12
f 51//13 13//14 1//15
f 4//16 5//17 1//15
f 8//18 6//19 4//16
f 7//20 8//18 2//21
f 11//22 9//23 7//20
f 10//24 11//22 3//1
f 10//24 6//19 12//25
f 6//19 9//23 12//25
f 16//26 17//27 13//14
f 20//28 18//29 16//26
f 19//30 20//28 14//6
f 19//30 24//31 21//32
f 22//33 23//34 15//35
f 17//27 24//31 22//33
f 18//29 21//32 24//31
f 28//36 29//37 25//5
f 28//36 33//38 30//39
f 31//40 32//41 26//9
f 35//42 33//38 31//40
f 34//43 35//42 27//44
f 29//37 36//45 34//43
f 30//39 33//38 36//45
f 40//46 41//47 37//48
f 40//46 45//49 42//50
f 43//51 44//52 38//53
f 47//54 45//49 43//51
f 46//55 47//54 39//8
f 41//47 48//56 46//55
f 42//50 45//49 48//56
f 52//57 53//58 49//3
f 52//57 57//59 54//60
f 55//61 56//62 50//12
f 59//63 57//59 55//61
f 58//64 59//63 51//13
f 53//58 60//65 58//64
f 54//60 57//59 60//65
f 64//66 65//67 61//4
f 64//66 69//68 66//69
f 67//70 68//71 62//72
f 71//73 69//68 67//70
f 70//74 71//73 63//11
f 65//67 72//75 70//74
f 66//69 69//68 72//75
f 76//76 77//77 73//7
f 80//78 78//79 76//76
f 79//80 80//78 74//81
f 79//80 84//82 81//83
f 82//84 83//85 75//86
f 77//77 84//82 82//84
f 78//79 81//83 84//82
f 88//87 89//88 85//89
f 92//90 90//91 88//87
f 91//92 92//90 86//10
f 95//93 93//94 91//92
f 94//95 95//93 87//2
f 94//95 90//91 96//96
f 90//91 93//94 96//96
f 1//15 17//27 4//16
f 4//16 22//33 8//18
f 22//33 2//21 8//18
f 2//21 44//52 7//20
f 7//20 40//46 11//22
f 11//22 37//48 3//1
f 3//1 53//58 10//24
f 10//24 58//64 5//17
f 5//17 51//13 1//15
f 14//6 29//37 19//30
f 19//30 34//43 23//34
f 23//34 27//44 15//35
f 13//14 68//71 16//26
f 16//26 64//66 20//28
f 20//28 61//4 14//6
f 26//9 47//54 31//40
f 31//40 43//51 35//42
f 35//42 38//53 27//44
f 25//5 80//78 28//36
f 28//36 76//76 32//41
f 32//41 73//7 26//9
f 39//8 89//88 46//55
f 46//55 94//95 41//47
f 41//47 87//2 37//48
f 50//12 71//73 55//61
f 55//61 67//70 59//63
f 59//63 62//72 51//13
f 49//3 95//93 52//57
f 52//57 91//92 56//62
f 56//62 86//10 50//12
f 63//11 83//85 70//74
f 70//74 79//80 65//67
f 65//67 74//81 61//4
f 75//86 92//90 82//84
f 92//90 77//77 82//84
f 77//77 85//89 73//7
f 15//35 38//53 2//21
f 3//1 37//48 87//2
f 61//4 74//81 25//5
f 73//7 85//89 39//8
f 86//10 75//86 63//11
f 51//13 62//72 13//14
f 4//16 6//19 5//17
f 8//18 9//23 6//19
f 7//20 9//23 8//18
f 11//22 12//25 9//23
f 10//24 12//25 11//22
f 10//24 5//17 6//19
f 16//26 18//29 17//27
f 20//28 21//32 18//29
f 19//30 21//32 20//28
f 19//30 23//34 24//31
f 22//33 24//31 23//34
f 17//27 18//29 24//31
f 28//36 30//39 29//37
f 28//36 32//41 33//38
f 31//40 33//38 32//41
f 35//42 36//45 33//38
f 34//43 36//45 35//42
f 29//37 30//39 36//45
f 40//46 42//50 41//47
f 40//46 44//52 45//49
f 43//51 45//49 44//52
f 47//54 48//56 45//49
f 46//55 48//56 47//54
f 41//47 42//50 48//56
f 52//57 54//60 53//58
f 52//57 56//62 57//59
f 55//61 57//59 56//62
f 59//63 60//65 57//59
f 58//64 60//65 59//63
f 53//58 54//60 60//65
f 64//66 66//69 65//67
f 64//66 68//71 69//68
f 67//70 69//68 68//71
f 71//73 72//75 69//68
f 70//74 72//75 71//73
f 65//67 66//69 72//75
f 76//76 78//79 77//77
f 80//78 81//83 78//79
f 79//80 81//83 80//78
f 79//80 83//85 84//82
f 82//84 84//82 83//85
f 77//77 78//79 84//82
f 88//87 90//91 89//88
f 92//90 93//94 90//91
f 91//92 93//94 92//90
f 95//93 96//96 93//94
f 94//95 96//96 95//93
f 94//95 89//88 90//91
f 1//15 13//14 17//27
f 4//16 17//27 22//33
f 22//33 15//35 2//21
f 2//21 38//53 44//52
f 7//20 44//52 40//46
f 11//22 40//46 37//48
f 3//1 49//3 53//58
f 10//24 53//58 58//64
f 5//17 58//64 51//13
f 14//6 25//5 29//37
f 19//30 29//37 34//43
f 23//34 34//43 27//44
f 13//14 62//72 68//71
f 16//26 68//71 64//66
f 20//28 64//66 61//4
f 26//9 39//8 47//54
f 31//40 47//54 43//51
f 35//42 43//51 38//53
f 25//5 74//81 80//78
f 28//36 80//78 76//76
f 32//41 76//76 73//7
f 39//8 85//89 89//88
f 46//55 89//88 94//95
f 41//47 94//95 87//2
f 50//12 63//11 71//73
f 55//61 71//73 67//70
f 59//63 67//70 62//72
f 49//3 87//2 95//93
f 52//57 95//93 91//92
f 56//62 91//92 86//10
f 63//11 75//86 83//85
f 70//74 83//85 79//80
f 65//67 79//80 74//81
f 75//86 86//10 92//90
f 92//90 88//87 77//77
f 77//77 88//87 85//89
f 15//35 27//44 38//53
